<svg width="1440" height="906" viewBox="0 0 1440 906" fill="none" xmlns="http://www.w3.org/2000/svg">
<g clip-path="url(#clip0)">
<path d="M-8 -30H1446V982H-8V-30Z" fill="url(#paint0_linear)"/>
<mask id="mask0" mask-type="alpha" maskUnits="userSpaceOnUse" x="2" y="-30" width="1441" height="907">
<path d="M2.88281 -29.822H1442.88V876.178H2.88281L2.88281 -29.822Z" fill="url(#paint1_linear)"/>
</mask>
<g mask="url(#mask0)">
<circle cx="378.39" cy="624.814" r="101.003" fill="url(#paint2_linear)"/>
<circle cx="549.395" cy="716.69" r="159.488" fill="url(#paint3_linear)"/>
<circle cx="834.535" cy="546.01" r="3.15255" fill="#B8A0FB"/>
<circle cx="834.535" cy="566.309" r="3.15255" fill="#B8A0FB"/>
<circle cx="834.535" cy="586.608" r="3.15255" fill="#B8A0FB"/>
<circle cx="834.535" cy="606.907" r="3.15255" fill="#B8A0FB"/>
<circle cx="834.535" cy="627.207" r="3.15255" fill="#B8A0FB"/>
<circle cx="854.834" cy="546.01" r="3.15255" fill="#B8A0FB"/>
<circle cx="854.834" cy="566.309" r="3.15255" fill="#B8A0FB"/>
<circle cx="854.834" cy="586.608" r="3.15255" fill="#B8A0FB"/>
<circle cx="854.834" cy="606.907" r="3.15255" fill="#B8A0FB"/>
<circle cx="854.834" cy="627.207" r="3.15255" fill="#B8A0FB"/>
<circle cx="875.133" cy="546.01" r="3.15255" fill="#B8A0FB"/>
<circle cx="875.133" cy="566.309" r="3.15255" fill="#B8A0FB"/>
<circle cx="875.133" cy="586.608" r="3.15255" fill="#B8A0FB"/>
<circle cx="875.133" cy="606.907" r="3.15255" fill="#B8A0FB"/>
<circle cx="875.133" cy="627.207" r="3.15255" fill="#B8A0FB"/>
<circle cx="895.432" cy="546.01" r="3.15255" fill="#B8A0FB"/>
<circle cx="895.432" cy="566.309" r="3.15255" fill="#B8A0FB"/>
<circle cx="895.432" cy="586.608" r="3.15255" fill="#B8A0FB"/>
<circle cx="895.432" cy="606.907" r="3.15255" fill="#B8A0FB"/>
<circle cx="895.432" cy="627.207" r="3.15255" fill="#B8A0FB"/>
<circle cx="915.731" cy="546.01" r="3.15255" fill="#B8A0FB"/>
<circle cx="915.731" cy="566.309" r="3.15255" fill="#B8A0FB"/>
<circle cx="915.731" cy="586.608" r="3.15255" fill="#B8A0FB"/>
<circle cx="915.731" cy="606.907" r="3.15255" fill="#B8A0FB"/>
<circle cx="915.731" cy="627.207" r="3.15255" fill="#B8A0FB"/>
<circle cx="1176.12" cy="609.696" r="61.7617" fill="url(#paint4_linear)"/>
</g>
<circle opacity="0.8" cx="265.289" cy="238.944" r="149.766" fill="url(#paint5_linear)"/>
<circle cx="108.547" cy="98.6481" r="3.81283" fill="#8967EA" fill-opacity="0.4"/>
<circle cx="108.547" cy="123.199" r="3.81283" fill="#8967EA" fill-opacity="0.4"/>
<circle cx="108.547" cy="147.75" r="3.81283" fill="#8967EA" fill-opacity="0.4"/>
<circle cx="108.547" cy="172.3" r="3.81283" fill="#8967EA" fill-opacity="0.4"/>
<circle cx="108.547" cy="196.851" r="3.81283" fill="#8967EA" fill-opacity="0.4"/>
<circle cx="133.092" cy="98.648" r="3.81283" fill="#8967EA" fill-opacity="0.4"/>
<circle cx="133.092" cy="123.199" r="3.81283" fill="#8967EA" fill-opacity="0.4"/>
<circle cx="133.092" cy="147.75" r="3.81283" fill="#8967EA" fill-opacity="0.4"/>
<circle cx="133.092" cy="172.3" r="3.81283" fill="#8967EA" fill-opacity="0.4"/>
<circle cx="133.092" cy="196.851" r="3.81283" fill="#8967EA" fill-opacity="0.4"/>
<circle cx="157.649" cy="98.648" r="3.81283" fill="#8967EA" fill-opacity="0.4"/>
<circle cx="157.649" cy="123.199" r="3.81283" fill="#8967EA" fill-opacity="0.4"/>
<circle cx="157.649" cy="147.75" r="3.81283" fill="#8967EA" fill-opacity="0.4"/>
<circle cx="157.649" cy="172.3" r="3.81283" fill="#8967EA" fill-opacity="0.4"/>
<circle cx="157.649" cy="196.851" r="3.81283" fill="#8967EA" fill-opacity="0.4"/>
<circle cx="182.201" cy="98.648" r="3.81283" fill="#8967EA" fill-opacity="0.4"/>
<circle cx="182.201" cy="123.199" r="3.81283" fill="#8967EA" fill-opacity="0.4"/>
<circle cx="182.201" cy="147.75" r="3.81283" fill="#8967EA" fill-opacity="0.4"/>
<circle cx="182.201" cy="172.3" r="3.81283" fill="#8967EA" fill-opacity="0.4"/>
<circle cx="182.201" cy="196.851" r="3.81283" fill="#8967EA" fill-opacity="0.4"/>
<circle cx="206.742" cy="98.648" r="3.81283" fill="#8967EA" fill-opacity="0.4"/>
<circle cx="206.742" cy="123.199" r="3.81283" fill="#8967EA" fill-opacity="0.4"/>
<circle cx="206.742" cy="147.75" r="3.81283" fill="#8967EA" fill-opacity="0.4"/>
<circle cx="206.742" cy="172.3" r="3.81283" fill="#8967EA" fill-opacity="0.4"/>
<circle cx="206.742" cy="196.851" r="3.81283" fill="#8967EA" fill-opacity="0.4"/>
<rect opacity="0.8" x="1160.55" y="402.003" width="243.154" height="243.154" fill="url(#paint6_linear)"/>
<circle opacity="0.8" cx="-18.6549" cy="663.833" r="147.345" fill="url(#paint7_linear)"/>
<circle opacity="0.8" cx="1012.36" cy="5.19922" r="168.199" fill="url(#paint8_linear)"/>
<rect x="772.555" y="73.0671" width="179.111" height="179.111" fill="url(#paint9_linear)"/>
<circle cx="1385.94" cy="372.24" r="71.8335" fill="url(#paint10_linear)"/>
</g>
<defs>
<linearGradient id="paint0_linear" x1="719" y1="-30" x2="719" y2="945.582" gradientUnits="userSpaceOnUse">
<stop stop-color="#1C1B7E"/>
<stop offset="1" stop-color="#1E1079"/>
</linearGradient>
<linearGradient id="paint1_linear" x1="722.883" y1="-29.822" x2="722.883" y2="843.575" gradientUnits="userSpaceOnUse">
<stop stop-color="#1C1B7E"/>
<stop offset="1" stop-color="#1E1079"/>
</linearGradient>
<linearGradient id="paint2_linear" x1="383.574" y1="523.811" x2="383.574" y2="725.817" gradientUnits="userSpaceOnUse">
<stop stop-color="#2D29A3"/>
<stop offset="1" stop-color="#261B86" stop-opacity="0"/>
</linearGradient>
<linearGradient id="paint3_linear" x1="557.581" y1="557.201" x2="557.581" y2="876.178" gradientUnits="userSpaceOnUse">
<stop stop-color="#2D29A3"/>
<stop offset="1" stop-color="#261B86" stop-opacity="0"/>
</linearGradient>
<linearGradient id="paint4_linear" x1="1176.12" y1="547.934" x2="1176.12" y2="671.457" gradientUnits="userSpaceOnUse">
<stop stop-color="#5652CC"/>
<stop offset="1" stop-color="#32279B"/>
</linearGradient>
<linearGradient id="paint5_linear" x1="265.289" y1="89.178" x2="265.289" y2="388.709" gradientUnits="userSpaceOnUse">
<stop stop-color="#282599"/>
<stop offset="1" stop-color="#261B86"/>
</linearGradient>
<linearGradient id="paint6_linear" x1="1282.13" y1="402.003" x2="1282.13" y2="645.157" gradientUnits="userSpaceOnUse">
<stop stop-color="#282599"/>
<stop offset="1" stop-color="#261B86"/>
</linearGradient>
<linearGradient id="paint7_linear" x1="-18.6549" y1="516.488" x2="-18.6549" y2="811.178" gradientUnits="userSpaceOnUse">
<stop stop-color="#282599"/>
<stop offset="1" stop-color="#261B86"/>
</linearGradient>
<linearGradient id="paint8_linear" x1="1012.36" y1="-163" x2="1012.36" y2="173.398" gradientUnits="userSpaceOnUse">
<stop stop-color="#282599"/>
<stop offset="1" stop-color="#261B86"/>
</linearGradient>
<linearGradient id="paint9_linear" x1="866.707" y1="73.0671" x2="866.707" y2="252.178" gradientUnits="userSpaceOnUse">
<stop stop-color="#2D29A3"/>
<stop offset="1" stop-color="#261B86" stop-opacity="0"/>
</linearGradient>
<linearGradient id="paint10_linear" x1="1385.94" y1="300.407" x2="1385.94" y2="444.074" gradientUnits="userSpaceOnUse">
<stop stop-color="#5652CC"/>
<stop offset="1" stop-color="#32279B"/>
</linearGradient>
<clipPath id="clip0">
<rect width="1440" height="906" fill="white"/>
</clipPath>
</defs>
</svg>
